<svg xmlns="http://www.w3.org/2000/svg" version="1.1" xmlns:xlink="http://www.w3.org/1999/xlink" xmlns:svgjs="http://svgjs.com/svgjs" width="1440" height="560" preserveAspectRatio="none" viewBox="0 0 1440 560"><g mask="url(&quot;#SvgjsMask1113&quot;)" fill="none"><path d="M996.305,116.841C1012.015,117.857,1028.92,114.439,1037.52,101.253C1046.807,87.014,1045.753,68.536,1037.506,53.67C1028.996,38.33,1013.846,27.124,996.305,26.96C978.501,26.793,961.363,36.792,953.742,52.884C946.917,67.296,954.555,83.186,963.389,96.461C971.052,107.975,982.503,115.949,996.305,116.841" fill="rgba(28, 83, 142, 0.4)" class="triangle-float2"></path><path d="M261.82,265.15C307.754,263.723,348.656,238.669,372.294,199.258C396.687,158.587,402.153,109.128,380.795,66.785C357.123,19.854,314.357,-21.405,261.82,-19.763C211.12,-18.179,179.295,29.276,155.063,73.839C132.25,115.793,115.507,164.812,138.778,206.514C162.507,249.036,213.148,266.662,261.82,265.15" fill="rgba(28, 83, 142, 0.4)" class="triangle-float1"></path><path d="M858.26 520.34 a111.68 111.68 0 1 0 223.36 0 a111.68 111.68 0 1 0 -223.36 0z" fill="rgba(28, 83, 142, 0.4)" class="triangle-float3"></path><path d="M623.74 40.62 a111.88 111.88 0 1 0 223.76 0 a111.88 111.88 0 1 0 -223.76 0z" fill="rgba(28, 83, 142, 0.4)" class="triangle-float3"></path><path d="M1460.349,522.496C1514.15,519.303,1546.806,469.205,1572.903,422.049C1597.874,376.928,1619.54,324.686,1594.892,279.388C1569.437,232.608,1513.594,214.08,1460.349,215.2C1409.212,216.276,1362.343,241.456,1335.269,284.851C1306.399,331.125,1296.605,388.674,1322.008,436.938C1349.075,488.363,1402.338,525.938,1460.349,522.496" fill="rgba(28, 83, 142, 0.4)" class="triangle-float1"></path><path d="M282.894,247.746C308.58,248.861,336.724,246.1,351.095,224.781C366.891,201.348,366.495,169.758,351.696,145.683C337.511,122.607,309.967,112.964,282.894,113.831C257.421,114.647,233.715,127.586,221.325,149.858C209.258,171.548,211.02,198.262,224.235,219.273C236.638,238.993,259.62,246.735,282.894,247.746" fill="rgba(28, 83, 142, 0.4)" class="triangle-float1"></path><path d="M41.793,304.919C67.171,304.076,90.306,291.373,103.521,269.691C117.332,247.031,119.869,219.523,108.434,195.576C95.116,167.685,72.7,140.555,41.793,140.415C10.732,140.274,-11.608,167.392,-25.902,194.968C-38.905,220.054,-42.287,249.981,-27.473,274.042C-13.268,297.114,14.714,305.819,41.793,304.919" fill="rgba(28, 83, 142, 0.4)" class="triangle-float3"></path><path d="M1212.653,273.072C1243.348,271.257,1261.611,242.602,1277.127,216.055C1292.854,189.146,1311.174,157.938,1295.786,130.834C1280.294,103.546,1244.02,101.622,1212.653,102.492C1183.259,103.307,1153.142,110.565,1137.138,135.233C1119.756,162.025,1118.118,196.542,1133.463,224.551C1149.405,253.65,1179.531,275.031,1212.653,273.072" fill="rgba(28, 83, 142, 0.4)" class="triangle-float1"></path><path d="M136.14 89.84 a175.49 175.49 0 1 0 350.98 0 a175.49 175.49 0 1 0 -350.98 0z" fill="rgba(28, 83, 142, 0.4)" class="triangle-float3"></path><path d="M1165.922,235.883C1209.559,239.664,1261.601,239.941,1283.8,202.182C1306.144,164.176,1281.698,118.005,1256.487,81.837C1235.473,51.69,1202.607,35.231,1165.922,33.076C1124.175,30.624,1075.705,33.75,1054.843,69.994C1034.007,106.193,1055.572,149.714,1078.811,184.419C1098.923,214.454,1129.91,232.762,1165.922,235.883" fill="rgba(28, 83, 142, 0.4)" class="triangle-float3"></path><path d="M620.96 403.83 a109.9 109.9 0 1 0 219.8 0 a109.9 109.9 0 1 0 -219.8 0z" fill="rgba(28, 83, 142, 0.4)" class="triangle-float1"></path><path d="M336.971,469.066C359.038,468.035,372.315,446.635,382.157,426.857C390.701,409.688,393.339,390.336,384.657,373.237C375.054,354.324,358.12,339.49,336.971,337.869C312.796,336.016,286.652,343.722,274.68,364.806C262.813,385.705,271.505,410.818,283.831,431.449C295.761,451.417,313.736,470.151,336.971,469.066" fill="rgba(28, 83, 142, 0.4)" class="triangle-float1"></path><path d="M940.546,447.914C985.243,450.556,1033.394,434.026,1053.754,394.148C1072.967,356.516,1049.375,314.705,1026.787,278.996C1006.297,246.603,978.719,218.647,940.546,215.178C895.432,211.079,843.995,220.745,822.087,260.395C800.59,299.302,824.626,344.426,848.366,382.007C869.988,416.234,900.133,445.525,940.546,447.914" fill="rgba(28, 83, 142, 0.4)" class="triangle-float1"></path><path d="M-15.5 516.88 a110.37 110.37 0 1 0 220.74 0 a110.37 110.37 0 1 0 -220.74 0z" fill="rgba(28, 83, 142, 0.4)" class="triangle-float1"></path><path d="M-14.32 388.57 a127.15 127.15 0 1 0 254.3 0 a127.15 127.15 0 1 0 -254.3 0z" fill="rgba(28, 83, 142, 0.4)" class="triangle-float3"></path><path d="M131.21 328.27 a124.42 124.42 0 1 0 248.84 0 a124.42 124.42 0 1 0 -248.84 0z" fill="rgba(28, 83, 142, 0.4)" class="triangle-float2"></path><path d="M-16.18 8.82 a121.55 121.55 0 1 0 243.1 0 a121.55 121.55 0 1 0 -243.1 0z" fill="rgba(28, 83, 142, 0.4)" class="triangle-float3"></path><path d="M965.819,268.188C1000.776,269.854,1037.198,258.978,1055.721,229.285C1075.203,198.054,1074.408,157.13,1054.352,126.265C1035.796,97.708,999.864,90.057,965.819,90.931C933.607,91.758,901.078,102.794,884.826,130.618C868.451,158.653,873.159,193.389,889.631,221.367C905.84,248.899,933.906,266.667,965.819,268.188" fill="rgba(28, 83, 142, 0.4)" class="triangle-float1"></path><path d="M501.02 396.38 a125.19 125.19 0 1 0 250.38 0 a125.19 125.19 0 1 0 -250.38 0z" fill="rgba(28, 83, 142, 0.4)" class="triangle-float2"></path><path d="M1188 352.83 a101.69 101.69 0 1 0 203.38 0 a101.69 101.69 0 1 0 -203.38 0z" fill="rgba(28, 83, 142, 0.4)" class="triangle-float3"></path></g><defs><mask id="SvgjsMask1113"><rect width="1440" height="560" fill="#ffffff"></rect></mask><style>
            @keyframes float1 {
                0%{transform: translate(0, 0)}
                50%{transform: translate(-10px, 0)}
                100%{transform: translate(0, 0)}
            }

            .triangle-float1 {
                animation: float1 5s infinite;
            }

            @keyframes float2 {
                0%{transform: translate(0, 0)}
                50%{transform: translate(-5px, -5px)}
                100%{transform: translate(0, 0)}
            }

            .triangle-float2 {
                animation: float2 4s infinite;
            }

            @keyframes float3 {
                0%{transform: translate(0, 0)}
                50%{transform: translate(0, -10px)}
                100%{transform: translate(0, 0)}
            }

            .triangle-float3 {
                animation: float3 6s infinite;
            }
        </style></defs></svg>