<svg xmlns="http://www.w3.org/2000/svg" version="1.1" xmlns:xlink="http://www.w3.org/1999/xlink" xmlns:svgjs="http://svgjs.com/svgjs" width="1440" height="560" preserveAspectRatio="none" viewBox="0 0 1440 560"><g mask="url(&quot;#SvgjsMask1147&quot;)" fill="none"><path d="M653.24 38.64 a151.53 151.53 0 1 0 303.06 0 a151.53 151.53 0 1 0 -303.06 0z" fill="rgba(28, 83, 142, 0.4)" class="triangle-float1"></path><path d="M201.078,81.301C226.233,80.542,246.526,63.035,258.958,41.154C271.217,19.577,274.287,-5.933,263.277,-28.173C250.863,-53.249,229.055,-75.371,201.078,-75.762C172.589,-76.16,149.196,-55.097,135.798,-29.952C123.232,-6.369,123.294,21.791,136.818,44.838C150.177,67.604,174.694,82.097,201.078,81.301" fill="rgba(28, 83, 142, 0.4)" class="triangle-float3"></path><path d="M189.8 189.79 a167.52 167.52 0 1 0 335.04 0 a167.52 167.52 0 1 0 -335.04 0z" fill="rgba(28, 83, 142, 0.4)" class="triangle-float3"></path><path d="M-69.69 445.41 a115.47 115.47 0 1 0 230.94 0 a115.47 115.47 0 1 0 -230.94 0z" fill="rgba(28, 83, 142, 0.4)" class="triangle-float3"></path><path d="M1044.219,152.446C1063.579,151.816,1081.126,141.993,1091.258,125.484C1101.916,108.119,1106.071,86.141,1095.664,68.624C1085.431,51.399,1064.252,46.029,1044.219,46.305C1024.758,46.573,1005.647,53.605,995.169,70.007C983.854,87.719,980.817,110.663,991.564,128.726C1002.114,146.458,1023.597,153.117,1044.219,152.446" fill="rgba(28, 83, 142, 0.4)" class="triangle-float1"></path><path d="M1069.278,609.411C1099.524,611.894,1131.402,598.997,1145.637,572.195C1159.256,546.552,1147.592,516.357,1131.553,492.154C1117.437,470.852,1094.823,457.68,1069.278,456.963C1042.306,456.206,1013.648,464.84,1000.643,488.482C987.969,511.523,998.953,538.347,1011.933,561.217C1025.143,584.492,1042.606,607.221,1069.278,609.411" fill="rgba(28, 83, 142, 0.4)" class="triangle-float3"></path><path d="M1204.05 409.46 a114.59 114.59 0 1 0 229.18 0 a114.59 114.59 0 1 0 -229.18 0z" fill="rgba(28, 83, 142, 0.4)" class="triangle-float3"></path><path d="M1097.712,384.339C1152.533,384.432,1194.192,341.534,1221.922,294.243C1250.063,246.251,1269.193,187.765,1241.153,139.714C1213.271,91.933,1152.926,77.957,1097.712,81.39C1048.702,84.437,1006.836,113.362,982.159,155.816C957.341,198.513,951.947,249.749,974.232,293.821C998.914,342.634,1043.013,384.246,1097.712,384.339" fill="rgba(28, 83, 142, 0.4)" class="triangle-float3"></path><path d="M387.458,490.32C443.741,487.591,477.153,431.894,500.989,380.835C520.657,338.705,521.782,291.413,499.318,250.705C476.013,208.471,435.592,178.247,387.458,175.094C333.124,171.535,275.559,187.836,246.969,234.176C217.18,282.459,225.824,343.114,253.106,392.856C281.622,444.848,328.229,493.192,387.458,490.32" fill="rgba(28, 83, 142, 0.4)" class="triangle-float3"></path><path d="M248.469,522.844C286.361,522.886,322.559,506.314,342.738,474.242C364.323,439.935,370.058,396.413,350.27,361.04C330.062,324.915,289.836,304.246,248.469,305.722C209.431,307.115,177.553,333.771,158.52,367.883C140.029,401.024,135.507,441.212,154.559,474.034C173.541,506.736,210.657,522.802,248.469,522.844" fill="rgba(28, 83, 142, 0.4)" class="triangle-float2"></path><path d="M1143.58 427.49 a148.99 148.99 0 1 0 297.98 0 a148.99 148.99 0 1 0 -297.98 0z" fill="rgba(28, 83, 142, 0.4)" class="triangle-float1"></path><path d="M1155.54,136.423C1186.55,136.111,1215.148,121.656,1232.243,95.781C1251.477,66.669,1264.521,28.851,1246.247,-0.873C1228.479,-29.774,1189.466,-29.061,1155.54,-28.977C1121.829,-28.894,1083.547,-28.967,1065.605,-0.427C1046.905,29.317,1056.825,67.988,1076.121,97.349C1093.488,123.775,1123.92,136.741,1155.54,136.423" fill="rgba(28, 83, 142, 0.4)" class="triangle-float1"></path><path d="M633.22 282.88 a109.6 109.6 0 1 0 219.2 0 a109.6 109.6 0 1 0 -219.2 0z" fill="rgba(28, 83, 142, 0.4)" class="triangle-float1"></path><path d="M787.23 327.31 a166.29 166.29 0 1 0 332.58 0 a166.29 166.29 0 1 0 -332.58 0z" fill="rgba(28, 83, 142, 0.4)" class="triangle-float3"></path></g><defs><mask id="SvgjsMask1147"><rect width="1440" height="560" fill="#ffffff"></rect></mask><style>
            @keyframes float1 {
                0%{transform: translate(0, 0)}
                50%{transform: translate(-10px, 0)}
                100%{transform: translate(0, 0)}
            }

            .triangle-float1 {
                animation: float1 5s infinite;
            }

            @keyframes float2 {
                0%{transform: translate(0, 0)}
                50%{transform: translate(-5px, -5px)}
                100%{transform: translate(0, 0)}
            }

            .triangle-float2 {
                animation: float2 4s infinite;
            }

            @keyframes float3 {
                0%{transform: translate(0, 0)}
                50%{transform: translate(0, -10px)}
                100%{transform: translate(0, 0)}
            }

            .triangle-float3 {
                animation: float3 6s infinite;
            }
        </style></defs></svg>