<?xml version="1.0" encoding="iso-8859-1"?>
<!-- Generator: Adobe Illustrator 18.0.0, SVG Export Plug-In . SVG Version: 6.00 Build 0)  -->
<!DOCTYPE svg PUBLIC "-//W3C//DTD SVG 1.1//EN" "http://www.w3.org/Graphics/SVG/1.1/DTD/svg11.dtd">
<svg version="1.1" id="Capa_1" xmlns="http://www.w3.org/2000/svg" xmlns:xlink="http://www.w3.org/1999/xlink" x="0px" y="0px"
	 viewBox="0 0 297 297" style="enable-background:new 0 0 297 297;" xml:space="preserve">
<g>
	<path style="fill:#F9B65F;" d="M155.629,218.245c8.355-10.711,32.4-18.058,41.303-26.961c18.891-18.891,7.414-48.252-17.775-73.441
		s-54.549-36.666-73.441-17.775c-8.903,8.903-16.25,32.947-26.961,41.303c-21.989,17.153-47.71,9.413-64.676,26.379
		c-26.238,26.238-13.869,59.072,21.115,94.056s67.818,47.353,94.056,21.115C146.215,265.955,138.476,240.234,155.629,218.245z"/>
	<path style="opacity:0.3;fill:#F9B65F;" d="M191.814,132.417c8.863,17.144,9.451,33.893-2.855,46.199
		c-8.903,8.903-32.947,16.25-41.303,26.961c-17.153,21.989-9.413,47.71-26.379,64.676c-26.238,26.238-59.072,13.869-94.056-21.115
		c-7.596-7.596-14.122-15.09-19.422-22.438c6.032,11.328,15.379,23.09,27.394,35.105c34.984,34.984,67.818,47.353,94.056,21.115
		c16.966-16.966,9.227-42.688,26.379-64.676c8.355-10.711,32.4-18.058,41.303-26.961
		C212.266,175.949,207.59,153.717,191.814,132.417z"/>
	
		<rect x="182.516" y="7.935" transform="matrix(0.7071 0.7071 -0.7071 0.7071 127.8508 -111.3626)" style="fill:#935733;" width="31.671" height="181.426"/>
	
		<rect x="114.966" y="100.501" transform="matrix(0.7071 -0.7071 0.7071 0.7071 -14.6937 176.476)" style="opacity:0.3;fill:#935733;" width="181.426" height="10.948"/>
	<circle style="fill:#794C2B;" cx="123.651" cy="173.349" r="24.884"/>
	<circle style="opacity:0.31;fill:#794C2B;" cx="123.651" cy="173.349" r="20.399"/>
	<circle style="fill:#AE9676;" cx="123.651" cy="173.349" r="9.727"/>
	<path style="fill:#794C2B;" d="M55.39,213.86l27.75,27.75c2.408,2.408,6.313,2.408,8.721,0l3.116-3.116
		c2.408-2.408,2.408-6.313,0-8.721l-27.75-27.75c-2.408-2.408-6.313-2.408-8.721,0l-3.116,3.116
		C52.982,207.548,52.982,211.452,55.39,213.86z"/>
	<path style="fill:#794C2B;" d="M243.319,66.29l-12.608-12.608c-3.667-3.667-4.015-9.495-0.811-13.572l28.438-36.194
		c3.794-4.829,10.956-5.257,15.298-0.915L294,23.365c4.343,4.343,3.914,11.504-0.915,15.298l-36.194,28.438
		C252.814,70.305,246.986,69.956,243.319,66.29z"/>
	<path style="opacity:0.31;fill:#794C2B;" d="M294,23.365l-1.792-1.792c-0.641,1.157-1.509,2.216-2.622,3.091l-36.194,28.438
		c-4.077,3.204-9.906,2.855-13.572-0.811l-10.816-10.816c-2.187,3.936-1.567,8.933,1.708,12.208l12.608,12.608
		c3.667,3.667,9.495,4.015,13.572,0.811l36.194-28.438C297.914,34.869,298.342,27.707,294,23.365z"/>
</g>
<g>
</g>
<g>
</g>
<g>
</g>
<g>
</g>
<g>
</g>
<g>
</g>
<g>
</g>
<g>
</g>
<g>
</g>
<g>
</g>
<g>
</g>
<g>
</g>
<g>
</g>
<g>
</g>
<g>
</g>
</svg>
