<?xml version="1.0" encoding="UTF-8"?>
<svg xmlns="http://www.w3.org/2000/svg" xmlns:xlink="http://www.w3.org/1999/xlink" viewBox="0 0 48 48" width="48px" height="48px">
<g id="surface100796376">
<path style=" stroke:none;fill-rule:nonzero;fill:rgb(94.509804%,76.862746%,5.882353%);fill-opacity:1;" d="M 39 15 C 39 12.800781 37.199219 11 35 11 L 29 11 C 28.300781 11 27.898438 10.199219 28.300781 9.601562 C 28.898438 8.601562 29.199219 7.398438 28.898438 6.101562 C 28.5 4.101562 27 2.5 25.101562 2.101562 C 21.800781 1.398438 19 3.898438 19 7 C 19 8 19.300781 8.800781 19.699219 9.601562 C 20.101562 10.199219 19.699219 11 18.898438 11 L 12.898438 11 C 10.699219 11 8.898438 12.800781 8.898438 15 L 8.898438 22 C 8.898438 22.699219 9.699219 23.101562 10.300781 22.699219 C 11.300781 22.101562 12.5 21.800781 13.800781 22.101562 C 15.800781 22.5 17.398438 24 17.800781 25.898438 C 18.5 29.101562 16 32 12.898438 32 C 11.898438 32 11.101562 31.699219 10.300781 31.300781 C 9.800781 30.898438 9 31.300781 9 32 L 9 38 C 9 40.199219 10.800781 42 13 42 L 35 42 C 37.199219 42 39 40.199219 39 38 Z M 39 15 "/>
</g>
</svg>
