<?xml version="1.0" encoding="UTF-8"?>
<svg xmlns="http://www.w3.org/2000/svg" xmlns:xlink="http://www.w3.org/1999/xlink" width="40px" height="40px" viewBox="0 0 40 40" version="1.1">
<g id="surface1">
<path style=" stroke:none;fill-rule:nonzero;fill:rgb(0.784314%,53.333333%,81.960784%);fill-opacity:1;" d="M 35 30.832031 C 35 33.136719 33.136719 35 30.832031 35 L 9.167969 35 C 6.867188 35 5 33.136719 5 30.832031 L 5 9.167969 C 5 6.863281 6.867188 5 9.167969 5 L 30.832031 5 C 33.136719 5 35 6.863281 35 9.167969 Z M 35 30.832031 "/>
<path style=" stroke:none;fill-rule:nonzero;fill:rgb(100%,100%,100%);fill-opacity:1;" d="M 10 15.832031 L 14.167969 15.832031 L 14.167969 30 L 10 30 Z M 12.070312 14.167969 L 12.046875 14.167969 C 10.804688 14.167969 10 13.238281 10 12.082031 C 10 10.898438 10.828125 10 12.09375 10 C 13.363281 10 14.144531 10.898438 14.167969 12.082031 C 14.167969 13.238281 13.363281 14.167969 12.070312 14.167969 Z M 30 30 L 25.832031 30 L 25.832031 22.417969 C 25.832031 20.585938 24.8125 19.335938 23.171875 19.335938 C 21.921875 19.335938 21.246094 20.179688 20.917969 20.996094 C 20.796875 21.285156 20.832031 22.09375 20.832031 22.5 L 20.832031 30 L 16.667969 30 L 16.667969 15.832031 L 20.832031 15.832031 L 20.832031 18.011719 C 21.433594 17.082031 22.375 15.832031 24.78125 15.832031 C 27.761719 15.832031 30 17.707031 30 21.894531 Z M 30 30 "/>
</g>
</svg>
