<?xml version="1.0" encoding="iso-8859-1"?>
<!-- Generator: Adobe Illustrator 19.0.0, SVG Export Plug-In . SVG Version: 6.00 Build 0)  -->
<svg version="1.1" id="Layer_1" xmlns="http://www.w3.org/2000/svg" xmlns:xlink="http://www.w3.org/1999/xlink" x="0px" y="0px"
	 viewBox="0 0 512.002 512.002" style="enable-background:new 0 0 512.002 512.002;" xml:space="preserve">
<g>
	<path style="fill:#FCD051;" d="M404.453,259.581h-85.331h-85.334h-85.331H95.123v186.595c0,30.336,24.818,55.156,55.154,55.156
		h231.023c30.333,0,55.154-24.821,55.154-55.156V259.581H404.453z"/>
	<g>
		<rect x="63.12" y="195.576" style="fill:#D12D4E;" width="405.331" height="64.003"/>
		
			<rect x="43.609" y="71.132" transform="matrix(0.9521 -0.3059 0.3059 0.9521 -19.7418 80.2782)" style="fill:#D12D4E;" width="405.345" height="63.999"/>
	</g>
</g>
<g>
	<path style="fill:#000003;" d="M247.757,312.916h0.256c5.891,0,10.667-4.778,10.667-10.667c0-5.892-4.777-10.667-10.667-10.667
		h-0.256c-5.891,0-10.667,4.776-10.667,10.667C237.089,308.139,241.866,312.916,247.757,312.916z"/>
	<path style="fill:#000003;" d="M137.789,312.911h79.322c5.892,0,10.667-4.777,10.667-10.667c0-5.892-4.776-10.667-10.667-10.667
		h-79.322c-5.892,0-10.667,4.776-10.667,10.667C127.122,308.135,131.898,312.911,137.789,312.911z"/>
	<path style="fill:#000003;" d="M356.925,355.581h0.253c5.892,0,10.667-4.777,10.667-10.667c0-5.892-4.776-10.667-10.667-10.667
		h-0.253c-5.891,0-10.667,4.776-10.667,10.667C346.258,350.804,351.035,355.581,356.925,355.581z"/>
	<path style="fill:#000003;" d="M137.789,355.577H326.28c5.892,0,10.667-4.777,10.667-10.667c0-5.892-4.776-10.667-10.667-10.667
		H137.789c-5.892,0-10.667,4.776-10.667,10.667C127.122,350.8,131.898,355.577,137.789,355.577z"/>
	<path style="fill:#000003;" d="M393.789,376.906H137.789c-5.892,0-10.667,4.776-10.667,10.667c0,5.889,4.776,10.667,10.667,10.667
		h117.333v60.424c0,5.889,4.776,10.667,10.667,10.667c5.892,0,10.667-4.778,10.667-10.667v-60.424h117.33
		c5.891,0,10.667-4.778,10.667-10.667C404.456,381.681,399.679,376.906,393.789,376.906z"/>
	<path style="fill:#000003;" d="M479.067,194.526c-0.016-0.16-0.046-0.319-0.068-0.477c-0.027-0.186-0.048-0.371-0.085-0.555
		c-0.035-0.181-0.084-0.356-0.129-0.533c-0.041-0.16-0.075-0.321-0.123-0.479c-0.053-0.175-0.118-0.341-0.179-0.512
		c-0.058-0.158-0.11-0.317-0.174-0.473c-0.066-0.158-0.143-0.313-0.217-0.467c-0.076-0.16-0.147-0.323-0.23-0.479
		c-0.08-0.148-0.171-0.289-0.256-0.433c-0.093-0.155-0.18-0.313-0.282-0.463c-0.107-0.159-0.224-0.308-0.337-0.461
		c-0.095-0.125-0.182-0.254-0.284-0.378c-0.221-0.271-0.456-0.529-0.702-0.778c0,0-0.003-0.004-0.004-0.006
		c-0.006-0.004-0.013-0.011-0.019-0.015c-0.244-0.244-0.498-0.473-0.764-0.691c-0.119-0.098-0.246-0.183-0.371-0.277
		c-0.156-0.116-0.307-0.236-0.467-0.343c-0.147-0.098-0.299-0.183-0.449-0.273c-0.149-0.09-0.294-0.183-0.449-0.265
		c-0.15-0.081-0.304-0.148-0.459-0.221c-0.162-0.077-0.322-0.158-0.489-0.227c-0.147-0.061-0.296-0.109-0.445-0.162
		c-0.179-0.065-0.357-0.133-0.542-0.19c-0.145-0.044-0.291-0.075-0.438-0.112c-0.191-0.05-0.379-0.102-0.574-0.14
		c-0.163-0.033-0.33-0.052-0.495-0.077c-0.178-0.025-0.355-0.059-0.537-0.077c-0.284-0.027-0.569-0.037-0.852-0.042
		c-0.065-0.002-0.129-0.011-0.195-0.011H131.203L452.289,81.755c0.269-0.085,0.526-0.19,0.783-0.295
		c0.061-0.025,0.124-0.044,0.186-0.068c0.403-0.175,0.787-0.375,1.16-0.592c0.091-0.052,0.176-0.112,0.266-0.166
		c0.291-0.183,0.572-0.377,0.842-0.586c0.094-0.073,0.188-0.142,0.279-0.217c0.334-0.275,0.654-0.564,0.95-0.875
		c0.037-0.039,0.07-0.083,0.108-0.125c0.265-0.288,0.51-0.59,0.74-0.902c0.073-0.1,0.145-0.201,0.214-0.302
		c0.253-0.371,0.492-0.75,0.696-1.146c0,0,0.002-0.004,0.002-0.006c0.006-0.011,0.011-0.022,0.017-0.035
		c0.154-0.3,0.292-0.608,0.417-0.923c0.061-0.153,0.106-0.306,0.158-0.459c0.061-0.177,0.126-0.35,0.177-0.531
		c0.05-0.175,0.086-0.352,0.127-0.529c0.037-0.162,0.08-0.323,0.11-0.488c0.031-0.175,0.05-0.35,0.073-0.527
		c0.023-0.169,0.05-0.339,0.064-0.511c0.014-0.166,0.015-0.332,0.02-0.496c0.006-0.183,0.018-0.367,0.015-0.553
		c-0.003-0.158-0.019-0.317-0.028-0.477c-0.012-0.188-0.019-0.375-0.041-0.564c-0.021-0.175-0.055-0.348-0.083-0.523
		c-0.029-0.169-0.05-0.337-0.086-0.507c-0.066-0.304-0.148-0.604-0.241-0.902c-0.012-0.037-0.018-0.075-0.029-0.112L439.61,7.405
		c-0.867-2.694-2.766-4.934-5.283-6.226c-2.515-1.294-5.444-1.534-8.137-0.669l-60.887,19.562c-0.03,0.011-0.06,0.019-0.09,0.029
		l-81.18,26.081c-0.015,0.004-0.029,0.009-0.044,0.013l-81.111,26.061c-0.07,0.02-0.141,0.044-0.211,0.067l-81.096,26.054
		c-0.028,0.011-0.058,0.019-0.085,0.027l-81.182,26.083c-0.339,0.109-0.673,0.234-1.001,0.375c-0.037,0.017-0.071,0.035-0.109,0.052
		c-0.282,0.125-0.558,0.26-0.827,0.409c-0.046,0.027-0.089,0.057-0.134,0.083c-0.256,0.148-0.51,0.3-0.753,0.468
		c-0.031,0.021-0.06,0.046-0.09,0.068c-0.254,0.179-0.502,0.365-0.739,0.566c-0.017,0.015-0.031,0.029-0.047,0.044
		c-0.246,0.21-0.485,0.431-0.714,0.667c-0.017,0.019-0.032,0.037-0.049,0.057c-0.222,0.231-0.435,0.47-0.638,0.725
		c-0.046,0.059-0.084,0.121-0.129,0.179c-0.165,0.219-0.332,0.437-0.481,0.671c-0.193,0.295-0.371,0.604-0.534,0.921
		c-0.162,0.319-0.308,0.644-0.438,0.973c-0.093,0.238-0.167,0.477-0.243,0.717c-0.029,0.094-0.066,0.183-0.092,0.275
		c-0.084,0.295-0.15,0.594-0.207,0.892c-0.007,0.039-0.02,0.081-0.028,0.121c-0.054,0.306-0.092,0.612-0.119,0.916
		c-0.003,0.039-0.012,0.079-0.015,0.116c-0.023,0.289-0.029,0.579-0.028,0.867c0,0.061-0.006,0.121-0.005,0.179
		c0.005,0.267,0.027,0.531,0.051,0.796c0.009,0.083,0.009,0.166,0.018,0.247c0.029,0.254,0.076,0.507,0.124,0.756
		c0.018,0.092,0.026,0.183,0.047,0.275c0.073,0.339,0.162,0.677,0.27,1.008l19.062,59.331v62.338c0,0.262,0.021,0.518,0.038,0.776
		c0.006,0.085,0.005,0.171,0.014,0.254c0.023,0.254,0.067,0.502,0.109,0.75c0.016,0.094,0.023,0.188,0.043,0.282
		c0.048,0.244,0.111,0.479,0.175,0.717c0.027,0.098,0.047,0.198,0.076,0.295c0.067,0.225,0.15,0.446,0.233,0.665
		c0.039,0.107,0.075,0.214,0.117,0.321c0.085,0.208,0.185,0.409,0.283,0.608c0.055,0.114,0.105,0.229,0.164,0.341
		c0.106,0.198,0.224,0.387,0.341,0.577c0.065,0.107,0.124,0.217,0.194,0.321c0.148,0.221,0.309,0.431,0.473,0.642
		c0.051,0.067,0.096,0.135,0.148,0.201c0.452,0.553,0.958,1.058,1.511,1.51c0.079,0.065,0.163,0.118,0.244,0.181
		c0.196,0.15,0.389,0.3,0.596,0.437c0.121,0.081,0.246,0.15,0.371,0.225c0.173,0.107,0.343,0.214,0.523,0.31
		c0.134,0.07,0.273,0.131,0.41,0.196c0.178,0.085,0.353,0.175,0.537,0.25c0.135,0.057,0.275,0.1,0.413,0.153
		c0.19,0.068,0.378,0.14,0.57,0.198c0.143,0.044,0.287,0.073,0.429,0.111c0.193,0.05,0.384,0.102,0.58,0.142
		c0.171,0.033,0.343,0.054,0.516,0.079c0.171,0.025,0.339,0.057,0.512,0.073c0.336,0.033,0.675,0.05,1.012,0.052
		c0.013,0,0.023,0.002,0.036,0.002h21.333v175.927c0,36.294,29.527,65.824,65.821,65.824h231.023
		c36.294,0,65.821-29.53,65.821-65.824V270.248h21.331c5.891,0,10.667-4.778,10.667-10.667v-64.003
		C479.12,195.226,479.101,194.876,479.067,194.526z M344.874,248.913l42.665-42.668h55.159l-42.665,42.668H344.874z
		 M259.541,248.913l42.667-42.668h55.16l-42.665,42.668H259.541z M174.209,248.913l42.666-42.668h55.16l-42.667,42.668H174.209z
		 M95.123,248.913h-6.245l42.666-42.668h55.159l-42.666,42.668H95.123z M123.849,120.051l53.669,27.571l-52.513,16.869
		l-53.672-27.569L123.849,120.051z M205.095,93.95l53.669,27.571l-52.52,16.874l-53.67-27.571L205.095,93.95z M286.331,67.852
		l53.672,27.569l-52.516,16.872l-53.669-27.571L286.331,67.852z M367.577,41.748l53.67,27.573l-52.515,16.869l-53.673-27.569
		L367.577,41.748z M96.277,173.723l-26.259,8.436l-8.436-26.256L96.277,173.723z M73.79,206.246h27.581L73.79,233.826V206.246z
		 M430.995,50.343l-34.693-17.822l26.256-8.436L430.995,50.343z M425.787,446.176c0,24.531-19.957,44.489-44.486,44.489H150.277
		c-24.53,0-44.486-19.958-44.486-44.489V270.248h319.997L425.787,446.176L425.787,446.176z M436.454,248.913h-6.248l27.58-27.581
		v27.581H436.454z"/>
</g>
<g>
</g>
<g>
</g>
<g>
</g>
<g>
</g>
<g>
</g>
<g>
</g>
<g>
</g>
<g>
</g>
<g>
</g>
<g>
</g>
<g>
</g>
<g>
</g>
<g>
</g>
<g>
</g>
<g>
</g>
</svg>
