<?xml version="1.0" encoding="iso-8859-1"?>
<!-- Generator: Adobe Illustrator 19.0.0, SVG Export Plug-In . SVG Version: 6.00 Build 0)  -->
<svg version="1.1" id="Layer_1" xmlns="http://www.w3.org/2000/svg" xmlns:xlink="http://www.w3.org/1999/xlink" x="0px" y="0px"
	 viewBox="0 0 305.584 305.584" style="enable-background:new 0 0 305.584 305.584;" xml:space="preserve">
<g>
	<path style="fill:#D9A460;" d="M152.792,0C98.689,0,48.083,14.95,4.859,40.929L152.792,287.6L300.725,40.929
		C257.501,14.95,206.895,0,152.792,0z"/>
	<path style="fill:#F2D383;" d="M152.792,41.579c-46.281,0-89.571,12.789-126.546,35.012l81.574,136.022
		c-0.003,0.111-0.017,0.22-0.017,0.332v81.447c0,6.182,5.011,11.192,11.192,11.192s11.192-5.011,11.192-11.192V249.91l22.604,37.69
		l51.181-85.342v34.182c0,6.181,5.011,11.191,11.192,11.191c6.182,0,11.192-5.011,11.192-11.191v-71.507l10.258-17.105v31.82
		c0,6.181,5.011,11.191,11.192,11.191c6.182,0,11.192-5.011,11.192-11.191v-69.146l20.337-33.911
		C242.363,54.368,199.073,41.579,152.792,41.579z"/>
	<path style="fill:#B3874F;" d="M152.792,41.579c-46.281,0-89.571,12.789-126.546,35.012l6.183,10.31
		C67.598,65.764,108.772,53.6,152.792,53.6s85.194,12.164,120.363,33.3l6.183-10.31C242.363,54.368,199.073,41.579,152.792,41.579z"
		/>
	<path style="fill:#E94F3D;" d="M188.979,160.65c-22.995,0-41.637,18.642-41.637,41.638c0,19.777,13.795,36.321,32.284,40.567
		l40.732-67.919C212.725,166.186,201.502,160.65,188.979,160.65z"/>
	<path style="fill:#E94F3D;" d="M91.704,102.164c-15.968,0-29.83,8.993-36.815,22.188l36.631,61.079
		c0.062,0.001,0.123,0.005,0.184,0.005c22.996,0,41.638-18.64,41.638-41.635C133.342,120.806,114.7,102.164,91.704,102.164z"/>
	<circle style="fill:#E94F3D;" cx="191.979" cy="104.166" r="41.637"/>
	<g>
		<path style="fill:#E94F3D;" d="M128.552,42.768C100.24,45.539,73.34,53.109,48.667,64.655
			c6.041,15.541,21.135,26.562,38.811,26.562c22.996,0,41.638-18.641,41.638-41.635C129.116,47.26,128.917,44.985,128.552,42.768z"
			/>
		<path style="fill:#C24232;" d="M128.552,42.768c-28.312,2.771-55.213,10.341-79.885,21.887c1.478,3.797,3.494,7.326,5.959,10.489
			c22.949-10.624,47.906-17.645,74.15-20.322c0.216-1.718,0.34-3.464,0.34-5.24C129.116,47.26,128.917,44.985,128.552,42.768z"/>
	</g>
	<g>
		<circle style="fill:#B3874F;" cx="26.292" cy="42.049" r="4"/>
		<circle style="fill:#B3874F;" cx="58.889" cy="50.049" r="4"/>
		<circle style="fill:#B3874F;" cx="94.115" cy="22.8" r="4"/>
		<circle style="fill:#B3874F;" cx="139.792" cy="30.8" r="4"/>
		<circle style="fill:#B3874F;" cx="187.85" cy="14.8" r="4"/>
		<circle style="fill:#B3874F;" cx="211.165" cy="38.049" r="4"/>
		<circle style="fill:#B3874F;" cx="283.338" cy="45.579" r="4"/>
		<circle style="fill:#B3874F;" cx="249.792" cy="37.579" r="4"/>
	</g>
</g>
<g>
</g>
<g>
</g>
<g>
</g>
<g>
</g>
<g>
</g>
<g>
</g>
<g>
</g>
<g>
</g>
<g>
</g>
<g>
</g>
<g>
</g>
<g>
</g>
<g>
</g>
<g>
</g>
<g>
</g>
</svg>
