<svg width="80" height="80" viewBox="0 0 80 80" fill="none" xmlns="http://www.w3.org/2000/svg">
<path d="M54.4288 11.2V33.6" stroke="black" stroke-width="2" stroke-miterlimit="10" stroke-linecap="round" stroke-linejoin="round"/>
<path d="M59.2288 28.8L54.4288 33.6L49.6288 28.8" stroke="black" stroke-width="2" stroke-miterlimit="10" stroke-linecap="round" stroke-linejoin="round"/>
<path d="M19.2 75.2V16C19.2 9.8144 24.2144 4.8 30.4 4.8C36.5856 4.8 41.6 9.8144 41.6 16V75.2" stroke="black" stroke-width="4" stroke-miterlimit="10" stroke-linecap="round" stroke-linejoin="round"/>
<path d="M35.2 24C35.2 24 33.0672 25.6 30.4 25.6C27.7328 25.6 25.6 24 25.6 24V17.6C25.6 14.9488 27.7488 12.8 30.4 12.8C33.0512 12.8 35.2 14.9488 35.2 17.6V24Z" stroke="black" stroke-width="2" stroke-miterlimit="10" stroke-linecap="round" stroke-linejoin="round"/>
<path d="M27.2288 54.4H33.6288" stroke="black" stroke-width="2" stroke-miterlimit="10" stroke-linecap="round" stroke-linejoin="round"/>
<path d="M27.2288 60.8H33.6288" stroke="black" stroke-width="2" stroke-miterlimit="10" stroke-linecap="round" stroke-linejoin="round"/>
</svg>
